<svg xmlns="http://www.w3.org/2000/svg" width="1" height="245" viewBox="0 0 1 245">
  <defs>
    <style>
      .cls-1 {
        fill: #777;
        fill-rule: evenodd;
      }
    </style>
  </defs>
  <path id="goriz" class="cls-1" d="M412.5,673a0.5,0.5,0,1,1-.5.5A0.5,0.5,0,0,1,412.5,673Zm0-60a0.5,0.5,0,1,1-.5.5A0.5,0.5,0,0,1,412.5,613Zm0-60a0.5,0.5,0,1,1-.5.5A0.5,0.5,0,0,1,412.5,553Zm0-60a0.5,0.5,0,1,1-.5.5A0.5,0.5,0,0,1,412.5,493Zm0-64a0.5,0.5,0,1,1-.5.5A0.5,0.5,0,0,1,412.5,429Z" transform="translate(-412 -429)"/>
</svg>
