<svg xmlns="http://www.w3.org/2000/svg" width="908.75" height="140.906" viewBox="0 0 908.75 140.906">
  <defs>
    <style>
      .cls-1 {
        fill: #85c875;
        fill-rule: evenodd;
      }
    </style>
  </defs>
  <path id="Rectangle_15_copy_2" data-name="Rectangle 15 copy 2" class="cls-1" d="M476.425,637.926C578.431,615.17,619.536,533,695.986,532.1c8.474,19.588,16.751,40.488,31.556,54.881,27.131,26.376,72.458,48.81,142.826,37.581,19.081,8.3,42.054,13.664,71.744,13.664,84.688,0,106.178-53.816,130.368-89.607,29.75-5.153,63.33-2.6,102.45,15.63,4.18,9.057,7.85,17.816,12.04,24.562,13.17,21.179,60.01,75.038,121.17,75.038h12.62V673H412V649.207h7.573C441.723,649.207,460.388,645.005,476.425,637.926Z" transform="translate(-412 -532.094)"/>
</svg>
