<svg xmlns="http://www.w3.org/2000/svg" width="804" height="1" viewBox="0 0 804 1">
  <defs>
    <style>
      .cls-1 {
        fill: #777;
        fill-rule: evenodd;
      }
    </style>
  </defs>
  <path id="Эллипс_1_копия_5" data-name="Эллипс 1 копия 5" class="cls-1" d="M0.5,163a0.5,0.5,0,1,1-.5.5A0.5,0.5,0,0,1,.5,163Zm73,0a0.5,0.5,0,1,1-.5.5A0.5,0.5,0,0,1,73.5,163Zm73,0a0.5,0.5,0,1,1-.5.5A0.5,0.5,0,0,1,146.5,163Zm73,0a0.5,0.5,0,1,1-.5.5A0.5,0.5,0,0,1,219.5,163Zm73,0a0.5,0.5,0,1,1-.5.5A0.5,0.5,0,0,1,292.5,163Zm73,0a0.5,0.5,0,1,1-.5.5A0.5,0.5,0,0,1,365.5,163Zm73,0a0.5,0.5,0,1,1-.5.5A0.5,0.5,0,0,1,438.5,163Zm73,0a0.5,0.5,0,1,1-.5.5A0.5,0.5,0,0,1,511.5,163Zm73,0a0.5,0.5,0,1,1-.5.5A0.5,0.5,0,0,1,584.5,163Zm73,0a0.5,0.5,0,1,1-.5.5A0.5,0.5,0,0,1,657.5,163Zm73,0a0.5,0.5,0,1,1-.5.5A0.5,0.5,0,0,1,730.5,163Zm73,0a0.5,0.5,0,1,1-.5.5A0.5,0.5,0,0,1,803.5,163Z" transform="translate(0 -163)"/>
</svg>
