<svg xmlns="http://www.w3.org/2000/svg" width="912" height="1" viewBox="0 0 912 1">
  <defs>
    <style>
      .cls-1 {
        fill: #777;
        fill-rule: evenodd;
      }
    </style>
  </defs>
  <path id="vert" class="cls-1" d="M409.5,433a0.5,0.5,0,1,1-.5.5A0.5,0.5,0,0,1,409.5,433Zm83,0a0.5,0.5,0,1,1-.5.5A0.5,0.5,0,0,1,492.5,433Zm83,0a0.5,0.5,0,1,1-.5.5A0.5,0.5,0,0,1,575.5,433Zm83,0a0.5,0.5,0,1,1-.5.5A0.5,0.5,0,0,1,658.5,433Zm83,0a0.5,0.5,0,1,1-.5.5A0.5,0.5,0,0,1,741.5,433Zm83,0a0.5,0.5,0,1,1-.5.5A0.5,0.5,0,0,1,824.5,433Zm83,0a0.5,0.5,0,1,1-.5.5A0.5,0.5,0,0,1,907.5,433Zm83,0a0.5,0.5,0,1,1-.5.5A0.5,0.5,0,0,1,990.5,433Zm83,0a0.5,0.5,0,1,1-.5.5A0.5,0.5,0,0,1,1073.5,433Zm83,0a0.5,0.5,0,1,1-.5.5A0.5,0.5,0,0,1,1156.5,433Zm82,0a0.5,0.5,0,1,1-.5.5A0.5,0.5,0,0,1,1238.5,433Zm82,0a0.5,0.5,0,1,1-.5.5A0.5,0.5,0,0,1,1320.5,433Z" transform="translate(-409 -433)"/>
</svg>
