<svg xmlns="http://www.w3.org/2000/svg" width="16" height="16" viewBox="0 0 16 16">
  <defs>
    <style>
      .cls-1 {
        fill: #03a9f5;
        fill-rule: evenodd;
      }
    </style>
  </defs>
  <path id="Forma_1" data-name="Forma 1" class="cls-1" d="M1192.77,44.371a1.36,1.36,0,0,1-.39-0.061L1194.13,57h11.63l0.7-4.664a6.624,6.624,0,0,1-6.71-3.793,1.186,1.186,0,1,1,1-.557c1.21,2.195,3.22,3.579,5.77,3.159a0.681,0.681,0,0,1,.12-0.007l1.02-6.836a1.454,1.454,0,0,1-.43.073h-14.46Zm14.46-3.377h-14.46a0.793,0.793,0,0,0-.77.807,0.836,0.836,0,0,0,.25.595,0.759,0.759,0,0,0,.52.213h14.46a0.756,0.756,0,0,0,.52-0.214A0.834,0.834,0,0,0,1208,41.8,0.793,0.793,0,0,0,1207.23,40.994Z" transform="translate(-1192 -41)"/>
</svg>
