<svg xmlns="http://www.w3.org/2000/svg" width="42" height="20" viewBox="0 0 42 20">
  <metadata><?xpacket begin="﻿" id="W5M0MpCehiHzreSzNTczkc9d"?>
<x:xmpmeta xmlns:x="adobe:ns:meta/" x:xmptk="Adobe XMP Core 5.6-c138 79.159824, 2016/09/14-01:09:01        ">
   <rdf:RDF xmlns:rdf="http://www.w3.org/1999/02/22-rdf-syntax-ns#">
      <rdf:Description rdf:about=""/>
   </rdf:RDF>
</x:xmpmeta>
                                                                                                    
                                                                                                    
                                                                                                    
                                                                                                    
                                                                                                    
                                                                                                    
                                                                                                    
                                                                                                    
                                                                                                    
                                                                                                    
                                                                                                    
                                                                                                    
                                                                                                    
                                                                                                    
                                                                                                    
                                                                                                    
                                                                                                    
                                                                                                    
                                                                                                    
                                                                                                    
                           
<?xpacket end="w"?></metadata>
<defs>
    <style>
      .cls-1 {
        fill: none;
        stroke: #03a9f5;
        stroke-width: 2px;
        fill-rule: evenodd;
      }
    </style>
  </defs>
  <path id="fish" class="cls-1" d="M1309.96,1718.14c-0.12-.27-0.99-1.41-1.78-2.59h-0.01c-0.17-.27-0.35-0.54-0.51-0.8a0.035,0.035,0,0,1-.01-0.02c-0.03-.04-1.87-2.95.76-1.77h0a20.758,20.758,0,0,1,1.91,1.14,56.661,56.661,0,0,0,5.23,2.8,1.223,1.223,0,0,0,1.01.08c2.04-1.25,5-3.47,8.91-4.7,0.06-.02.15-0.07,0.03-0.17l-1.67-1.15s-0.13-.12.04-0.17c0.83-.27,4.27-1.4,7.26-0.36,0.61,0.22,1.1.39,1.52,0.53a2.3,2.3,0,0,0,.71.18c8.14,0.28,13.64,6.15,13.64,8.48,0,1.56-.86,2.6-3.98,4.06a2.242,2.242,0,0,1-1.59.01c-0.28-.08-2.27-0.82-2.35-0.85a0.375,0.375,0,0,0-.17-0.05,0.169,0.169,0,0,0-.07.12c0.01,0.55,1.07,1,1.67,1.5a0.211,0.211,0,0,1-.05.36,16.5,16.5,0,0,1-5.49,1.47c-0.27.02-3.81,2.25-7.38,1.65-1.88-.31-2.78-0.42-3.19-0.53-0.36-.1-0.19-0.21-0.19-0.21l1.79-1.4a0.148,0.148,0,0,0-.08-0.26,26,26,0,0,1-8.98-4.37c-0.25-.2-0.91.28-1.38,0.51-1.55.77-7.99,3.39-8.52,2.83a0.161,0.161,0,0,1,0-.21C1307.94,1722.38,1311.22,1720.78,1309.96,1718.14Zm30.45-.19a1.035,1.035,0,1,0-1.04-1.03A1.037,1.037,0,0,0,1340.41,1717.95Z" transform="translate(-1306 -1709)"/>
</svg>
