<svg xmlns="http://www.w3.org/2000/svg" width="54.22" height="27.04" viewBox="0 0 54.22 27.04">
  <metadata><?xpacket begin="﻿" id="W5M0MpCehiHzreSzNTczkc9d"?>
<x:xmpmeta xmlns:x="adobe:ns:meta/" x:xmptk="Adobe XMP Core 5.6-c138 79.159824, 2016/09/14-01:09:01        ">
   <rdf:RDF xmlns:rdf="http://www.w3.org/1999/02/22-rdf-syntax-ns#">
      <rdf:Description rdf:about=""/>
   </rdf:RDF>
</x:xmpmeta>
                                                                                                    
                                                                                                    
                                                                                                    
                                                                                                    
                                                                                                    
                                                                                                    
                                                                                                    
                                                                                                    
                                                                                                    
                                                                                                    
                                                                                                    
                                                                                                    
                                                                                                    
                                                                                                    
                                                                                                    
                                                                                                    
                                                                                                    
                                                                                                    
                                                                                                    
                                                                                                    
                           
<?xpacket end="w"?></metadata>
<defs>
    <style>
      .cls-1 {
        fill: #ccd6df;
        fill-rule: evenodd;
      }
    </style>
  </defs>
  <path id="hook" class="cls-1" d="M1349.15,1743.04a13.627,13.627,0,0,1-13.77,6.67,13.83,13.83,0,0,1-4.73-1.65l-11.48-6.63-0.83.86a0.912,0.912,0,0,1-1.31.03,0.94,0.94,0,0,1-.16-1.14,2.2,2.2,0,0,1,.14-0.18l0.51-.52-0.76-.44-0.83.86a0.921,0.921,0,0,1-1.31.03,0.94,0.94,0,0,1-.16-1.14,2.2,2.2,0,0,1,.14-0.18l0.51-.52-0.76-.44-0.83.86a0.93,0.93,0,0,1-1.31.03,0.944,0.944,0,0,1-.16-1.14,2.2,2.2,0,0,1,.14-0.18l0.51-.53-0.76-.43-0.83.86a0.93,0.93,0,0,1-1.31.03,0.944,0.944,0,0,1-.16-1.14,0.862,0.862,0,0,1,.14-0.18l0.51-.53-0.76-.43-0.83.86a0.928,0.928,0,0,1-1.47-1.11,0.862,0.862,0,0,1,.14-0.18l0.51-.53-1.09-.62a3.7,3.7,0,0,1-6.22-3.6l-3.32-1.91a0.937,0.937,0,0,1,.94-1.62l3.31,1.91a3.712,3.712,0,0,1,6.23,3.6l1.48,0.85,0.83-.86a0.93,0.93,0,1,1,1.33,1.3l-0.5.52,0.75,0.44,0.83-.86a0.924,0.924,0,0,1,1.32-.03,0.942,0.942,0,0,1,.01,1.32l-0.5.52,0.75,0.44,0.83-.86a0.927,0.927,0,1,1,1.33,1.29l-0.5.52,0.75,0.44,0.83-.86a0.927,0.927,0,1,1,1.33,1.29l-0.5.53,0.75,0.43,0.83-.86a0.926,0.926,0,1,1,1.33,1.29l-0.5.53,11.07,6.39a11.732,11.732,0,0,0,11.73-20.32,11.4,11.4,0,0,0-2.29-1.01l0.85,1.58a0.929,0.929,0,0,1-1.63.89l-1.81-3.36a0.944,0.944,0,0,1-.02-0.85,0.01,0.01,0,0,0,.01-0.01,0.257,0.257,0,0,1,.02-0.05,0.01,0.01,0,0,0,.01-0.01v-0.01a0.947,0.947,0,0,1,.94-0.46,13.381,13.381,0,0,1,4.86,1.67A13.58,13.58,0,0,1,1349.15,1743.04Zm-44.07-12.98a1.868,1.868,0,1,0-.01,3.23l-1.39-.8a0.937,0.937,0,0,1,.94-1.62l1.39,0.8A1.858,1.858,0,0,0,1305.08,1730.06Z" transform="translate(-1296.78 -1722.84)"/>
</svg>
