<svg xmlns="http://www.w3.org/2000/svg" width="75.031" height="13.91" viewBox="0 0 75.031 13.91">
  <metadata><?xpacket begin="﻿" id="W5M0MpCehiHzreSzNTczkc9d"?>
<x:xmpmeta xmlns:x="adobe:ns:meta/" x:xmptk="Adobe XMP Core 5.6-c138 79.159824, 2016/09/14-01:09:01        ">
   <rdf:RDF xmlns:rdf="http://www.w3.org/1999/02/22-rdf-syntax-ns#">
      <rdf:Description rdf:about=""/>
   </rdf:RDF>
</x:xmpmeta>
                                                                                                    
                                                                                                    
                                                                                                    
                                                                                                    
                                                                                                    
                                                                                                    
                                                                                                    
                                                                                                    
                                                                                                    
                                                                                                    
                                                                                                    
                                                                                                    
                                                                                                    
                                                                                                    
                                                                                                    
                                                                                                    
                                                                                                    
                                                                                                    
                                                                                                    
                                                                                                    
                           
<?xpacket end="w"?></metadata>
<defs>
    <style>
      .cls-1 {
        fill: #bbb;
        fill-rule: evenodd;
      }
    </style>
  </defs>
  <path id="star_копия_4" data-name="star копия 4" class="cls-1" d="M325.006,1092.88l-4.619-2.21-4.665,2.13,0.745-4.95-3.524-3.64,5.08-.85,2.487-4.38,2.395,4.42,5.061,0.94-3.6,3.58Zm15,0-4.619-2.21-4.665,2.13,0.745-4.95-3.524-3.64,5.08-.85,2.487-4.38,2.395,4.42,5.061,0.94-3.6,3.58Zm15,0-4.619-2.21-4.665,2.13,0.745-4.95-3.524-3.64,5.08-.85,2.487-4.38,2.395,4.42,5.061,0.94-3.6,3.58Zm15,0-4.619-2.21-4.665,2.13,0.745-4.95-3.524-3.64,5.08-.85,2.487-4.38,2.395,4.42,5.061,0.94-3.6,3.58Zm15,0-4.619-2.21-4.665,2.13,0.745-4.95-3.524-3.64,5.08-.85,2.487-4.38,2.395,4.42,5.061,0.94-3.6,3.58Z" transform="translate(-312.938 -1078.97)"/>
</svg>
