<svg xmlns="http://www.w3.org/2000/svg" width="20" height="15.72" viewBox="0 0 20 15.72">
  <defs>
    <style>
      .cls-1 {
        fill: #ededec;
        fill-rule: evenodd;
      }
    </style>
  </defs>
  <path id="_" data-name="" class="cls-1" d="M52.971,1266.29a7.006,7.006,0,0,1-1.115.97c-1.863,1.26-3.737,2.53-5.555,3.85a6.11,6.11,0,0,1-3.313,1.53H42.965a6.11,6.11,0,0,1-3.313-1.53c-1.818-1.33-3.692-2.59-5.544-3.85a6.626,6.626,0,0,1-1.126-.97v8.85a1.8,1.8,0,0,0,1.785,1.79H51.186a1.8,1.8,0,0,0,1.785-1.79v-8.85Zm0-3.28a1.8,1.8,0,0,0-1.785-1.79H34.767a1.81,1.81,0,0,0-1.785,2.03,4.322,4.322,0,0,0,1.919,2.81c1.729,1.21,3.48,2.41,5.209,3.63,0.725,0.5,1.952,1.53,2.855,1.53h0.022c0.9,0,2.13-1.03,2.856-1.53,1.729-1.22,3.48-2.42,5.22-3.63A4.015,4.015,0,0,0,52.971,1263.01Z" transform="translate(-32.969 -1261.22)"/>
</svg>
