<svg xmlns="http://www.w3.org/2000/svg" width="41.969" height="35.281" viewBox="0 0 41.969 35.281">
  <defs>
    <style>
      .cls-1 {
        fill: #fff;
        fill-rule: evenodd;
      }
    </style>
  </defs>
  <path class="cls-1" d="M51.876,14.719L49.083,24.907s-0.845,1.948,2.941,3c0,0,3.382.038,3.529,0s3.051-.861,3.087-3.446l1.47-9.739H51.876Zm9.41,0.15L59.815,25.507s0.331,2.023,3.382,2.4a16.67,16.67,0,0,0,3.382-.15,3.567,3.567,0,0,0,2.941-2.7V14.869H61.286Zm9.41,0V25.507s0.515,2.06,3.676,2.4h3.088s3.418-.861,2.647-3.446l-1.323-9.589H70.7Zm9.263,0,1.47,10.788s0.331,1.761,3.529,2.247h3.088s3.639-.9,2.794-3.6l-2.794-9.439H79.958ZM50.553,29.464V49.841H55.4V33.509H65.991V49.991H89.368V29.464S82.2,31.149,80.84,26.917c0,0-.4,2.135-3.529,2.847h-3.97s-3.014-.825-3.234-2.847a4.26,4.26,0,0,1-3.676,2.847H62.609s-3.2-.637-3.381-3.3A3.633,3.633,0,0,1,55.7,29.614,13.208,13.208,0,0,1,50.553,29.464Zm20.731,4.045H84.663V44.447H71.284V33.509Z" transform="translate(-49 -14.719)"/>
</svg>
