<svg xmlns="http://www.w3.org/2000/svg" width="22" height="17.281" viewBox="0 0 22 17.281">
  <defs>
    <style>
      .cls-1 {
        fill: #fff;
        fill-rule: evenodd;
      }
    </style>
  </defs>
  <path id="_" data-name="" class="cls-1" d="M303.956,29.815a0.4,0.4,0,0,0-.393-0.393,0.411,0.411,0,0,0-.283.111l-3.537,3.538a0.415,0.415,0,0,0,0,.565l3.537,3.538a0.412,0.412,0,0,0,.283.11,0.4,0.4,0,0,0,.393-0.393V29.815Zm17.295,9.433a0.4,0.4,0,0,0-.393-0.393H299.632a0.4,0.4,0,0,0-.393.393v2.358a0.4,0.4,0,0,0,.393.393h21.226a0.4,0.4,0,0,0,.393-0.393V39.248Zm0-4.717a0.4,0.4,0,0,0-.393-0.393H307.494a0.4,0.4,0,0,0-.394.393V36.89a0.4,0.4,0,0,0,.394.393h13.364a0.4,0.4,0,0,0,.393-0.393V34.532Zm0-4.717a0.4,0.4,0,0,0-.393-0.393H307.494a0.4,0.4,0,0,0-.394.393v2.358a0.4,0.4,0,0,0,.394.393h13.364a0.4,0.4,0,0,0,.393-0.393V29.815Zm0-4.717a0.4,0.4,0,0,0-.393-0.393H299.632a0.4,0.4,0,0,0-.393.393v2.358a0.4,0.4,0,0,0,.393.393h21.226a0.4,0.4,0,0,0,.393-0.393V25.1Z" transform="translate(-299.25 -24.719)"/>
</svg>
