<svg xmlns="http://www.w3.org/2000/svg" width="18" height="15" viewBox="0 0 18 15">
  <defs>
    <style>
      .cls-1 {
        fill: #ededec;
        fill-rule: evenodd;
      }
    </style>
  </defs>
  <path id="out" class="cls-1" d="M204.347,189.873a0.306,0.306,0,0,1-.023-0.158,0.1,0.1,0,0,0-.08-0.1,0.145,0.145,0,0,1-.092-0.065,0.171,0.171,0,0,0-.132-0.035l-0.132-.012h-3.582a1.751,1.751,0,0,1-1.3-.55,1.826,1.826,0,0,1-.54-1.324v-8.248a1.822,1.822,0,0,1,.54-1.324,1.752,1.752,0,0,1,1.3-.551h3.674a0.342,0.342,0,0,0,.235-0.076,0.393,0.393,0,0,0,.114-0.228,1.915,1.915,0,0,0,.035-0.275,2.859,2.859,0,0,0-.006-0.311c-0.007-.125-0.011-0.2-0.011-0.234a0.367,0.367,0,0,0-.109-0.264A0.351,0.351,0,0,0,203.98,176h-3.674a3.152,3.152,0,0,0-2.336.99,3.283,3.283,0,0,0-.97,2.384v8.248a3.283,3.283,0,0,0,.97,2.384,3.152,3.152,0,0,0,2.336.99h3.674a0.342,0.342,0,0,0,.235-0.076,0.4,0.4,0,0,0,.115-0.229,2.034,2.034,0,0,0,.034-0.275,2.841,2.841,0,0,0-.006-0.31C204.351,189.983,204.347,189.905,204.347,189.873Zm10.435-6.9-6.245-6.374a0.712,0.712,0,0,0-1.033,0,0.728,0.728,0,0,0-.218.528V180.5h-5.143a0.7,0.7,0,0,0-.517.222,0.732,0.732,0,0,0-.218.528v4.5a0.732,0.732,0,0,0,.218.528,0.7,0.7,0,0,0,.517.222h5.143v3.375a0.728,0.728,0,0,0,.218.527,0.712,0.712,0,0,0,1.033,0l6.245-6.374A0.746,0.746,0,0,0,214.782,182.973Z" transform="translate(-197 -176)"/>
</svg>
