<svg xmlns="http://www.w3.org/2000/svg" width="49" height="30" viewBox="0 0 49 30">
  <defs>
    <style>
      .cls-1 {
        fill: #0cc;
        fill-rule: evenodd;
      }
    </style>
  </defs>
  <path id="_10" data-name="#10" class="cls-1" d="M367,2065.12h4V2082h-4v-16.88Zm5,7.5h4V2082h-4v-9.38Zm5-20.62h4v30h-4v-30Zm5,11.25h4V2082h-4v-18.75Zm5,1.87h4V2082h-4v-16.88Zm5-13.12h4v30h-4v-30Zm5,7.5h4V2082h-4v-22.5Zm5,13.12h4V2082h-4v-9.38Zm5-7.5h4V2082h-4v-16.88Zm5,11.25h4V2082h-4v-5.63Z" transform="translate(-367 -2052)"/>
</svg>
