<svg xmlns="http://www.w3.org/2000/svg" xmlns:xlink="http://www.w3.org/1999/xlink" width="16" height="16" viewBox="0 0 16 16">
  <defs>
    <style>
      .cls-1 {
        fill: #6d6e76;
        fill-rule: evenodd;
        filter: url(#filter);
      }
    </style>
    <filter id="filter" x="1231" y="376" width="16" height="16" filterUnits="userSpaceOnUse">
      <feFlood result="flood" flood-color="#a6a6a6"/>
      <feComposite result="composite" operator="in" in2="SourceGraphic"/>
      <feBlend result="blend" in2="SourceGraphic"/>
    </filter>
  </defs>
  <path id="refresh" class="cls-1" d="M1234.9,391.4s1.04-1.641,1.12-1.714c-1.51-1.516-5.28-5.706-1.3-9.825a5.847,5.847,0,0,1,8.47,0,6.454,6.454,0,0,1,0,8.9l1.63,1.305a8.6,8.6,0,0,0-.22-11.666,7.834,7.834,0,0,0-11.29,0C1227.32,384.406,1234.9,391.4,1234.9,391.4Zm6.11,0.583,0.02-5,5.98,5.012Z" transform="translate(-1231 -376)"/>
</svg>
