<svg xmlns="http://www.w3.org/2000/svg" width="13" height="15" viewBox="0 0 13 15">
  <defs>
    <style>
      .cls-1 {
        fill: #ededec;
        fill-rule: evenodd;
      }
    </style>
  </defs>
  <path id="user" class="cls-1" d="M126.5,183.5a3.323,3.323,0,0,0,2.507-1.1,3.9,3.9,0,0,0,0-5.3,3.409,3.409,0,0,0-5.014,0,3.9,3.9,0,0,0,0,5.3A3.323,3.323,0,0,0,126.5,183.5Zm6.469,3.961q-0.033-.494-0.129-1.065a8.858,8.858,0,0,0-.245-1.06,5.228,5.228,0,0,0-.4-0.952,3.4,3.4,0,0,0-.573-0.791,2.406,2.406,0,0,0-.789-0.523,2.648,2.648,0,0,0-1.03-.195,1.1,1.1,0,0,0-.388.21c-0.2.14-.433,0.3-0.688,0.469a4.249,4.249,0,0,1-1,.468,3.725,3.725,0,0,1-2.466,0,4.239,4.239,0,0,1-1-.468q-0.383-.26-0.687-0.469a1.115,1.115,0,0,0-.388-0.21,2.644,2.644,0,0,0-1.03.195,2.4,2.4,0,0,0-.79.523,3.428,3.428,0,0,0-.572.791,5.158,5.158,0,0,0-.4.952,8.669,8.669,0,0,0-.245,1.06,10.24,10.24,0,0,0-.129,1.065q-0.033.492-.033,1.011a2.507,2.507,0,0,0,.675,1.85,2.409,2.409,0,0,0,1.791.679h8.072a2.409,2.409,0,0,0,1.791-.679,2.507,2.507,0,0,0,.675-1.85Q133,187.953,132.969,187.461Z" transform="translate(-120 -176)"/>
</svg>
