<svg xmlns="http://www.w3.org/2000/svg" width="15" height="15" viewBox="0 0 15 15">
  <defs>
    <style>
      .cls-1 {
        fill: #ededec;
        fill-rule: evenodd;
      }
    </style>
  </defs>
  <path id="write" class="cls-1" d="M171.411,180.719h0l-0.994,1.721v6.893a0.089,0.089,0,0,1-.083.084H158.667a0.089,0.089,0,0,1-.084-0.084V177.667a0.089,0.089,0,0,1,.084-0.084h8.526l0.387-.67h0l0.224-.387a2.212,2.212,0,0,1,.423-0.526h-9.56A1.669,1.669,0,0,0,157,177.667v11.667A1.669,1.669,0,0,0,158.667,191h11.667A1.669,1.669,0,0,0,172,189.333V179.7Zm-6.644,3.15,0.016,3.108,2.7-1.539,3.195-5.534-2.717-1.568Zm6.656-5.255a1.585,1.585,0,0,0-2.718-1.568l-0.393.682,2.718,1.568Z" transform="translate(-157 -176)"/>
</svg>
